<svg width="537" height="90" viewBox="0 0 537 90" fill="none" xmlns="http://www.w3.org/2000/svg">
<path d="M0.0223265 84.202C-0.142257 85.2942 0.609756 86.3131 1.70199 86.4777L19.5011 89.1597C20.5933 89.3243 21.6122 88.5723 21.7767 87.4801C21.9413 86.3878 21.1893 85.369 20.0971 85.2044L4.27568 82.8203L6.65972 66.9989C6.82431 65.9067 6.0723 64.8878 4.98006 64.7233C3.88782 64.5587 2.86896 65.3107 2.70438 66.4029L0.0223265 84.202ZM65 38L66.2643 36.4503L65.0613 35.4689L63.8123 36.3909L65 38ZM122 84.5L120.736 86.0497L122.017 87.095L123.284 86.033L122 84.5ZM177.5 38L178.855 36.5287L177.562 35.3386L176.216 36.467L177.5 38ZM228 84.5L226.645 85.9713L227.869 87.0982L229.2 86.1L228 84.5ZM290 38L291.284 36.467L290.069 35.4484L288.8 36.4L290 38ZM345.5 84.5L344.216 86.033L345.422 87.0436L346.688 86.1091L345.5 84.5ZM408.5 38L409.784 36.467L408.578 35.4564L407.312 36.3909L408.5 38ZM464 84.5L462.716 86.033L463.858 86.9898L465.101 86.1695L464 84.5ZM3.1877 86.1091L66.1877 39.6091L63.8123 36.3909L0.812295 82.8909L3.1877 86.1091ZM63.7357 39.5497L120.736 86.0497L123.264 82.9503L66.2643 36.4503L63.7357 39.5497ZM123.284 86.033L178.784 39.533L176.216 36.467L120.716 82.967L123.284 86.033ZM176.145 39.4713L226.645 85.9713L229.355 83.0287L178.855 36.5287L176.145 39.4713ZM229.2 86.1L291.2 39.6L288.8 36.4L226.8 82.9L229.2 86.1ZM288.716 39.533L344.216 86.033L346.784 82.967L291.284 36.467L288.716 39.533ZM346.688 86.1091L409.688 39.6091L407.312 36.3909L344.312 82.8909L346.688 86.1091ZM407.216 39.533L462.716 86.033L465.284 82.967L409.784 36.467L407.216 39.533ZM465.101 86.1695L535.601 39.6695L533.399 36.3305L462.899 82.8305L465.101 86.1695Z" fill="#AAAAAA"/>
<path d="M65 6L66.2643 4.45027L65.0613 3.46894L63.8123 4.39085L65 6ZM122 52.5L120.736 54.0497L122.017 55.095L123.284 54.033L122 52.5ZM177.5 6L178.855 4.52872L177.562 3.33863L176.216 4.46696L177.5 6ZM228 52.5L226.645 53.9713L227.869 55.0982L229.2 54.1L228 52.5ZM290 6L291.284 4.46696L290.069 3.44842L288.8 4.4L290 6ZM345.5 52.5L344.216 54.033L345.422 55.0436L346.688 54.1091L345.5 52.5ZM408.5 6L409.784 4.46696L408.578 3.45641L407.312 4.39085L408.5 6ZM464 52.5L462.716 54.033L463.858 54.9898L465.101 54.1695L464 52.5ZM536.459 6.40189C536.681 5.31985 535.984 4.26275 534.902 4.04079L517.269 0.4238C516.187 0.201843 515.13 0.899078 514.908 1.98112C514.686 3.06316 515.383 4.12025 516.465 4.34221L532.139 7.55732L528.924 23.231C528.702 24.313 529.399 25.3701 530.481 25.5921C531.563 25.814 532.62 25.1168 532.842 24.0347L536.459 6.40189ZM3.1877 54.1091L66.1877 7.60915L63.8123 4.39085L0.812295 50.8909L3.1877 54.1091ZM63.7357 7.54973L120.736 54.0497L123.264 50.9503L66.2643 4.45027L63.7357 7.54973ZM123.284 54.033L178.784 7.53304L176.216 4.46696L120.716 50.967L123.284 54.033ZM176.145 7.47128L226.645 53.9713L229.355 51.0287L178.855 4.52872L176.145 7.47128ZM229.2 54.1L291.2 7.6L288.8 4.4L226.8 50.9L229.2 54.1ZM288.716 7.53304L344.216 54.033L346.784 50.967L291.284 4.46696L288.716 7.53304ZM346.688 54.1091L409.688 7.60915L407.312 4.39085L344.312 50.8909L346.688 54.1091ZM407.216 7.53304L462.716 54.033L465.284 50.967L409.784 4.46696L407.216 7.53304ZM465.101 54.1695L535.601 7.66955L533.399 4.33045L462.899 50.8305L465.101 54.1695Z" fill="#AAAAAA"/>
</svg>
